<?xml version="1.0" encoding="utf-8"?>
<!-- Generator: Adobe Illustrator 18.0.0, SVG Export Plug-In . SVG Version: 6.00 Build 0)  -->
<!DOCTYPE svg PUBLIC "-//W3C//DTD SVG 1.1//EN" "http://www.w3.org/Graphics/SVG/1.1/DTD/svg11.dtd">
<svg version="1.1" id="Слой_1" xmlns="http://www.w3.org/2000/svg" xmlns:xlink="http://www.w3.org/1999/xlink" x="0px" y="0px"
	 viewBox="0 138 1024 525.5" enable-background="new 0 138 1024 525.5" xml:space="preserve">
<path fill="#808080"      d="
	M1020.7,575.2c-0.9-2.1-7.1-11.4-7.1-11.4v-8.2l-5.1-3.8l-6.3,3.7v8.9c-2.1,0.9-5.2,13.9-5.2,13.9h-5.2v7.3h-10.4v2.1h-3.1V544h-1
	v-8.3h-2.1v-7.3h-10.4v7.3h-2.1v-7.3h-15.6V542h-1v11.4H944v-25.9l1-2.2v-7.3h-7.3v-8.3h-15.6v8.3h-8.3v1v3.7l1,4.7v65.3h-18.7v15.6
	h-4.2v6.2H889v-10l-2.1-2.4v-27.8l-6.7-10.6l-3.7,7.3h-16.1l-3.3-3.1l-2.9,6.2h-5.7v11.4h-6.2v-87.2h-14.5v-14.5h-2.1v14.5h-14.5
	v75.8h-5.2v5.2h-4.2v2.1h-6.2v7.3h-4.2v-4.2h-5.2v4.2H781v-8.3h-2.1v-45.7h-12.5v-12.5h-4.2V515h-3.1v7.3h-13.5v-31.2h-22.8v12.5
	h-6.2v-83.1h-5.2V275h-2.1v-36.3h-3.1v-35.3h-1.6l-4.6-49.8v63.4h-2.1v33.2h-1V300h-2.1v23.9h-2.1v64.4h-4.2v87.2h-4.2v18.7h-4.2
	v2.1v32.2h-4.2v3.1h-10.4V490h-2.1v-26v-7.3l-8.3-14.8v-2.9h-2.1v-7.3H647v7.3h-2.1v2.9l-8.3,14.8v8.3h-4.2v-7.3h-6.2v-4.2H619v-4.2
	h-6.2v-3.1h-6.2v13.5h-3.1v117.4h-7.3v6.2h-2.2l-1.6,1.5l-2.4-2.5h-8.8l-1.6,2.1h-2.6l-3.1-103.9h-4.7V463h-7.3v-16.6h-4.2v-3.1
	h-12.5v3.1H540v-3.1h-14.5v3.1h-5.2v-3.1h-11.4v3.1h-4.2V462h-10.4v91.4h-2.1v10.7l-5.2,15.2v13.5H484v-43.6h-5.2v-41.5h-33.2v20.8
	h-2.1v-6.2h-2.1v-28h-2.1v-3.1h3.1v-10.4h4.2v-5.2h-2.1v-18.7h1v-4.2h-4.2v-3.1h1v-3.1H439l-3.8-9.3v-3.1l-0.3-48.7l-2,39.7l-5-15.9
	h-1.4l-4.9,20.8h-4.2v2.1h2.1v4.2h-2.1v1h4.3l-5.4,10.4h-6.2v3.1h1v3.1h-4.2v4.2h1v17.7H405v-14.5h-10.4v-26h-27v-41.8l-1.6,32.8
	c-16.4,10.2-22.2,23.6-22.2,23.6v74.8h-3.1v-4.2h-12.5h-9.3v3.1h-2.1v5.2h-3.1v3.1h2.1V542h-7.3v3.1h2.1v3.1h-2.1v17.7h-5.2v2.1
	h-8.3v-5.2h-2.1v-3.1h-4.2v3.1h-3.1v-7.3h-3.1v-3.1h-8.3v3.1h-8.3v-83.1h-33.2v-30.1h-3.1v30.1H216v5.4l-11.4-11.6h-6.2v-16.6h-2.1
	v-27h-1v70.6h-3.1v53h-5.2v2.1h-2.1v4.2h2.1v3.1h-7.3v-3.1h-4.2v-54.1l-1.7-2.1l-19.1,8.5h-7.3v-40.3l-9.9-7l-2.6,2.1v-32.7h-3.1
	v-11.4h2.1v-32.2h-2.1V408h-2.1v15.3l-29.9,32.4h-2.3v-7.3h-1v7.3h-4.2v4.3l-5.2,5.1v31.2H73.7v41.2l-5.2-5.5l-7.2,8v8.3h-1H53V544
	H37.4v-4l-6.4-8.1l-7.1,8v8.3h-2.1v2.1h-4.2v-2.1h-2.1V540l-6.4-8.1l-7.1,8v8.3H0v115.3h1024v-88.3H1020.7z M835,524.3h-16.6v-19.7
	H835V524.3z"/>
</svg>
