<?xml version="1.0" standalone="no"?>
<!DOCTYPE svg PUBLIC "-//W3C//DTD SVG 20010904//EN"
 "http://www.w3.org/TR/2001/REC-SVG-20010904/DTD/svg10.dtd">
<svg version="1.0" xmlns="http://www.w3.org/2000/svg"
 width="128.000000pt" height="128.000000pt" viewBox="0 0 128.000000 128.000000"
 preserveAspectRatio="xMidYMid meet">
<metadata>
Created by potrace 1.11, written by Peter Selinger 2001-2013
</metadata>
<g transform="translate(0.000000,128.000000) scale(0.100000,-0.100000)"
fill="#000000" stroke="none">
<path d="M289 1172 c-24 -3 -25 -6 -24 -55 1 -44 -3 -56 -26 -79 l-26 -26 0
-426 0 -426 28 -26 29 -27 370 0 371 0 27 27 27 26 1 431 c0 360 -2 429 -13
424 -8 -2 -11 0 -8 5 3 5 -3 19 -13 31 -15 15 -19 32 -17 70 2 27 0 49 -4 50
-18 3 -700 4 -722 1z"/>
</g>
</svg>
